<?xml version="1.0" encoding="utf-8"?>
<!-- Generator: Adobe Illustrator 23.1.0, SVG Export Plug-In . SVG Version: 6.00 Build 0)  -->
<svg version="1.1" xmlns="http://www.w3.org/2000/svg" xmlns:xlink="http://www.w3.org/1999/xlink" x="0px" y="0px"
	 viewBox="0 0 344.8 73.7" style="enable-background:new 0 0 344.8 73.7;" xml:space="preserve">
<style type="text/css">
	.st0{fill-rule:evenodd;clip-rule:evenodd;fill:url(#SVGID_1_);}
	.st1{fill-rule:evenodd;clip-rule:evenodd;}
	.st2{fill-rule:evenodd;clip-rule:evenodd;fill:#808285;}
	.st3{fill-rule:evenodd;clip-rule:evenodd;fill:url(#SVGID_2_);}
</style>
<g id="Background">
</g>
<g id="Guides">
</g>
<g id="Foreground">
	<g>
		<linearGradient id="SVGID_1_" gradientUnits="userSpaceOnUse" x1="195.4617" y1="2.6345" x2="244.1922" y2="51.3649">
			<stop  offset="0" style="stop-color:#DF1A22"/>
			<stop  offset="0.5" style="stop-color:#B11116"/>
			<stop  offset="0.5" style="stop-color:#670000"/>
			<stop  offset="0.75" style="stop-color:#CE181E"/>
			<stop  offset="1" style="stop-color:#CE181E"/>
		</linearGradient>
		<path class="st0" d="M201.8,45.3h6l5.1,5.7l5.3-5.7h19.6V9.4h-35.9V45.3z M247.1,9.7v34.6c0,2.7-0.9,5-2.8,6.9
			c-1.9,1.9-4.2,2.8-6.9,2.8h-35.2c-2.7,0-5-1-6.9-2.9c-1.9-1.9-2.9-4.2-2.9-6.9V9.7c0-2.7,0.9-5,2.8-6.9c1.9-1.9,4.2-2.8,6.9-2.8
			h35.4c2.7,0,4.9,1,6.8,2.9C246.2,4.8,247.1,7.1,247.1,9.7z"/>
		<path class="st1" d="M250.8,54.1V9.7c0-2.7,0.9-5,2.8-6.9c1.9-1.9,4.2-2.8,6.9-2.8h20.1h16.9l-8.7,9.4h-8.2h-20.5v13h30.5v9.4
			h-30.5v22.4H250.8z"/>
		<polygon class="st1" points="10.8,0 10.8,25 32.9,0 45.3,0 23.2,25.2 45.1,54.1 33.1,54.1 17.1,32.6 10.8,39.5 10.8,54.1 0,54.1 
			0,0 		"/>
		<path class="st1" d="M144.9,43.9h32.8V31.7h-26.2c-3.2,0-5.4-0.7-6.9-2.1c-1.9-1.9-2.9-4.2-2.9-6.8v-13c0-2.7,0.9-5,2.8-6.9
			c1.9-1.9,4.2-2.8,6.9-2.8h37.2v9.4h-36v13h26.2c3.3,0,5.6,0.7,6.9,2.1c1.9,1.9,2.8,4.2,2.8,6.9v13c0,2.7-0.9,5-2.9,6.9
			c-1.9,1.9-4.2,2.9-6.9,2.9H140h-4.5L144.9,43.9z"/>
		<path class="st1" d="M109.7,43.9h2.8H137h4.5l-9.4,10.1h-19.7h-4c-2.7,0-5-1-6.9-2.9c-1.9-1.9-2.9-4.2-2.9-6.9V0h10.9V43.9z"/>
		<polygon class="st1" points="300.9,0 301.3,0 344.8,0 344.8,9.4 326,9.4 326,54.1 316.7,54.1 316.7,9.4 301.3,9.4 292.3,9.4 		"/>
		<path class="st1" d="M84.9,0c2.7,0,5,0.9,6.9,2.8c1.9,1.9,2.8,4.2,2.8,6.9v44.3h-9.4V31.7H57.1v22.4h-9.4V9.7c0-2.7,0.9-5,2.8-6.9
			C52.4,0.9,54.7,0,57.5,0H84.9z M85.3,22.3V9.4H57.1v12.9H85.3z"/>
		<g>
			<path class="st2" d="M122,69.5c0.2,0,0.4,0.1,0.8,0.1c0.3,0,0.8,0,1.2,0h0.6c0.5,0,0.9,0,1.2,0c0.3,0,0.6-0.1,0.8-0.2
				c0.2-0.1,0.4-0.2,0.5-0.4c0.1-0.2,0.2-0.4,0.2-0.6h1.1c0,0.9-0.4,1.5-1.1,1.8c-0.7,0.3-1.7,0.4-2.9,0.4c-1.3,0-2.2-0.1-2.8-0.2
				c-0.6-0.1-1.1-0.4-1.5-0.9c-0.4-0.5-0.6-1.3-0.6-2.5c0-1.4,0.3-2.4,0.8-2.9c0.6-0.5,1.6-0.7,3-0.7h0.7c1.1,0,2,0.1,2.5,0.2
				c0.6,0.1,1,0.4,1.4,0.9c0.3,0.5,0.5,1.3,0.5,2.3v0.4h-7.9c0,0.7,0.1,1.2,0.3,1.6C121,69.1,121.3,69.3,122,69.5z M124.4,64.2h-0.8
				c-0.6,0-1.1,0-1.5,0.1c-0.4,0.1-0.8,0.2-1,0.4c-0.2,0.2-0.4,0.4-0.4,0.7c-0.1,0.2-0.1,0.5-0.1,0.8h6.8c0-0.3,0-0.6-0.1-0.8
				c-0.1-0.2-0.2-0.4-0.4-0.6c-0.2-0.2-0.5-0.3-0.8-0.4C125.6,64.3,125.1,64.2,124.4,64.2z"/>
			<path class="st2" d="M148.5,69.6c-0.2,0.3-0.4,0.5-0.6,0.6c-0.3,0.1-0.6,0.2-1,0.2l-1.9,0h-0.9c-1.2,0-2.1-0.2-2.5-0.5
				c-0.4-0.4-0.6-0.9-0.6-1.6c0-0.8,0.1-1.3,0.4-1.6c0.3-0.3,0.7-0.5,1.2-0.5c0.5,0,0.9-0.1,1.3-0.1c0.4,0,0.8,0,1.1,0l2,0.1
				c0.4,0,0.6,0.1,0.9,0.2c0.2,0.1,0.4,0.3,0.7,0.6v-0.7c0-0.4,0-0.8-0.1-1.1c-0.1-0.3-0.2-0.5-0.5-0.7c-0.2-0.2-0.6-0.3-1.2-0.3
				c-0.6,0-1,0-1.3,0c-0.3,0-0.7,0-1,0c-0.3,0-0.7,0-1,0.1c-0.4,0-0.6,0.2-0.8,0.4c-0.1,0.2-0.2,0.5-0.2,0.8h-1.1
				c0-0.7,0.2-1.3,0.5-1.6c0.3-0.3,0.8-0.5,1.5-0.5c0.7-0.1,1.3-0.1,1.8-0.1c0.7,0,1.2,0,1.7,0c0.4,0,0.9,0.1,1.4,0.2
				c0.5,0.1,0.9,0.4,1.1,0.8c0.2,0.4,0.3,1,0.3,1.6v4.4h-1V69.6z M145,69.6h0.3c0.5,0,1,0,1.3,0c0.4,0,0.8-0.1,1.2-0.2
				c0.4-0.1,0.6-0.5,0.6-1c0-0.5-0.1-0.8-0.4-0.9c-0.3-0.1-0.6-0.2-1-0.3c-0.3,0-0.7-0.1-1.2-0.1l-0.9,0c-0.7,0-1.2,0-1.5,0
				c-0.3,0-0.6,0.1-0.8,0.2c-0.2,0.1-0.4,0.2-0.5,0.4c-0.1,0.2-0.1,0.4-0.1,0.7c0,0.4,0.1,0.6,0.3,0.8c0.2,0.2,0.7,0.3,1.3,0.3
				L145,69.6z"/>
			<path class="st2" d="M153,64.5c0.2-0.5,0.6-0.8,1-0.9c0.5-0.1,1.1-0.2,1.8-0.2h0.8c1.6,0,2.8,0.2,3.4,0.6c0.6,0.4,1,1.4,1,3
				c0,1.6-0.3,2.5-0.9,3c-0.6,0.4-1.8,0.6-3.4,0.6h-0.9c-0.7,0-1.3-0.1-1.7-0.2c-0.4-0.1-0.8-0.5-1.1-1v1.1h-1v-10h1V64.5z
				 M156.7,69.6h0.3c0.5,0,0.9,0,1.3,0c0.3,0,0.6-0.1,0.9-0.2c0.3-0.1,0.5-0.4,0.6-0.7c0.1-0.3,0.2-0.8,0.2-1.3V67
				c0-0.8-0.1-1.5-0.2-1.9c-0.2-0.4-0.5-0.7-0.9-0.7c-0.4-0.1-0.8-0.1-1.2-0.1c-0.3,0-0.7,0-0.9,0c-0.5,0-0.8,0-1.1,0
				c-0.3,0-0.7,0.1-1.2,0.1c-0.5,0.1-0.9,0.3-1,0.7c-0.2,0.4-0.3,1.1-0.3,1.9c0,0.6,0.1,1.1,0.2,1.5c0.1,0.4,0.3,0.7,0.7,0.8
				c0.3,0.2,0.7,0.2,1.2,0.3C155.5,69.6,156.1,69.6,156.7,69.6z"/>
			<rect x="163.2" y="60.4" class="st2" width="1" height="10"/>
			<path class="st2" d="M167.6,70.4h-1v-7.1h1V70.4z M167.6,61.7h-1v-1.3h1V61.7z"/>
			<path class="st2" d="M196.8,64.5c0.2-0.5,0.6-0.8,1-0.9c0.5-0.1,1.1-0.2,1.8-0.2h0.8c1.6,0,2.8,0.2,3.4,0.6c0.6,0.4,1,1.4,1,3
				c0,1.6-0.3,2.5-0.9,3c-0.6,0.4-1.8,0.6-3.4,0.6h-0.9c-0.7,0-1.3-0.1-1.7-0.2c-0.4-0.1-0.8-0.5-1.1-1v1.1h-1v-10h1V64.5z
				 M200.5,69.6h0.3c0.5,0,0.9,0,1.3,0c0.3,0,0.6-0.1,0.9-0.2c0.3-0.1,0.5-0.4,0.6-0.7c0.1-0.3,0.2-0.8,0.2-1.3V67
				c0-0.8-0.1-1.5-0.2-1.9c-0.2-0.4-0.5-0.7-0.9-0.7c-0.4-0.1-0.8-0.1-1.2-0.1c-0.3,0-0.7,0-0.9,0c-0.5,0-0.8,0-1.1,0
				c-0.3,0-0.7,0.1-1.2,0.1c-0.5,0.1-0.9,0.3-1,0.7c-0.2,0.4-0.3,1.1-0.3,1.9c0,0.6,0.1,1.1,0.2,1.5c0.1,0.4,0.3,0.7,0.7,0.8
				c0.3,0.2,0.7,0.2,1.2,0.3C199.3,69.6,199.9,69.6,200.5,69.6z"/>
			<path class="st2" d="M244.9,69.5c0.2,0,0.4,0.1,0.8,0.1c0.3,0,0.8,0,1.2,0h0.6c0.5,0,0.9,0,1.2,0c0.3,0,0.6-0.1,0.8-0.2
				c0.2-0.1,0.4-0.2,0.5-0.4c0.1-0.2,0.2-0.4,0.2-0.6h1.1c0,0.9-0.4,1.5-1.1,1.8c-0.7,0.3-1.7,0.4-2.9,0.4c-1.3,0-2.2-0.1-2.8-0.2
				c-0.6-0.1-1.1-0.4-1.5-0.9c-0.4-0.5-0.6-1.3-0.6-2.5c0-1.4,0.3-2.4,0.8-2.9c0.6-0.5,1.5-0.7,3-0.7h0.7c1.1,0,2,0.1,2.5,0.2
				c0.6,0.1,1,0.4,1.4,0.9c0.3,0.5,0.5,1.3,0.5,2.3v0.4h-7.9c0,0.7,0.1,1.2,0.3,1.6C243.9,69.1,244.3,69.3,244.9,69.5z M247.3,64.2
				h-0.8c-0.6,0-1.1,0-1.5,0.1c-0.4,0.1-0.8,0.2-1,0.4c-0.2,0.2-0.4,0.4-0.4,0.7c-0.1,0.2-0.1,0.5-0.1,0.8h6.8c0-0.3,0-0.6-0.1-0.8
				c-0.1-0.2-0.2-0.4-0.4-0.6c-0.2-0.2-0.5-0.3-0.8-0.4C248.5,64.3,248,64.2,247.3,64.2z"/>
			<path class="st2" d="M285.7,69.6c-0.2,0.3-0.4,0.5-0.6,0.6c-0.3,0.1-0.6,0.2-1,0.2l-1.9,0h-0.9c-1.2,0-2.1-0.2-2.5-0.5
				c-0.4-0.4-0.6-0.9-0.6-1.6c0-0.8,0.1-1.3,0.4-1.6c0.3-0.3,0.7-0.5,1.2-0.5c0.5,0,0.9-0.1,1.3-0.1c0.4,0,0.8,0,1.1,0l2,0.1
				c0.4,0,0.6,0.1,0.9,0.2c0.2,0.1,0.4,0.3,0.7,0.6v-0.7c0-0.4,0-0.8-0.1-1.1c-0.1-0.3-0.2-0.5-0.5-0.7c-0.2-0.2-0.6-0.3-1.2-0.3
				c-0.6,0-1,0-1.3,0c-0.3,0-0.7,0-1,0c-0.3,0-0.7,0-1,0.1c-0.4,0-0.6,0.2-0.8,0.4c-0.1,0.2-0.2,0.5-0.2,0.8h-1.1
				c0-0.7,0.2-1.3,0.5-1.6c0.3-0.3,0.8-0.5,1.5-0.5c0.7-0.1,1.3-0.1,1.8-0.1c0.7,0,1.2,0,1.7,0c0.4,0,0.9,0.1,1.4,0.2
				c0.5,0.1,0.9,0.4,1.1,0.8c0.2,0.4,0.3,1,0.3,1.6v4.4h-1V69.6z M282.2,69.6h0.3c0.5,0,1,0,1.3,0c0.4,0,0.8-0.1,1.2-0.2
				c0.4-0.1,0.6-0.5,0.6-1c0-0.5-0.1-0.8-0.4-0.9c-0.3-0.1-0.6-0.2-1-0.3c-0.3,0-0.7-0.1-1.2-0.1l-0.9,0c-0.7,0-1.2,0-1.5,0
				c-0.3,0-0.6,0.1-0.8,0.2c-0.2,0.1-0.4,0.2-0.5,0.4c-0.1,0.2-0.1,0.4-0.1,0.7c0,0.4,0.1,0.6,0.3,0.8c0.2,0.2,0.7,0.3,1.3,0.3
				L282.2,69.6z"/>
			<path class="st2" d="M298,70.8c0,1-0.3,1.7-0.8,2.2c-0.5,0.5-1.7,0.7-3.5,0.7h-0.9c-1.3,0-2.2-0.1-2.8-0.4
				c-0.6-0.3-0.9-1-0.9-2.1h1c0.1,0.5,0.2,0.9,0.5,1.1c0.2,0.2,0.5,0.3,0.9,0.4c0.4,0.1,0.7,0.1,1,0.1c0.3,0,0.6,0,1,0
				c0.6,0,1.2,0,1.6-0.1c0.5,0,0.8-0.1,1.1-0.3c0.3-0.1,0.5-0.4,0.6-0.7c0.1-0.3,0.2-0.6,0.2-1v-1.5c-0.2,0.5-0.5,0.8-0.9,1
				c-0.4,0.2-0.9,0.2-1.6,0.2l-1.8,0c-1.3,0-2.3-0.3-2.8-0.8c-0.6-0.5-0.9-1.4-0.9-2.7c0-1.3,0.2-2.2,0.6-2.8
				c0.4-0.6,1.1-0.9,2.3-0.9h2c0.8,0,1.5,0.1,2.1,0.2c0.5,0.1,0.9,0.5,1.1,1.1v-1.2h1V70.8z M292.7,69.6h0.5h0.3c0.5,0,0.9,0,1.2,0
				c0.3,0,0.6-0.1,1-0.2c0.4-0.1,0.7-0.3,0.9-0.7c0.2-0.3,0.3-0.8,0.3-1.4c0-1.2-0.1-2-0.4-2.4c-0.3-0.4-0.9-0.6-2-0.6l-2,0
				c-1,0-1.7,0.2-2,0.6c-0.3,0.4-0.5,1.1-0.5,2.2v0.2c0,0.9,0.1,1.5,0.4,1.9c0.3,0.3,0.5,0.5,0.8,0.6c0.3,0,0.6,0.1,0.9,0.1
				C292.4,69.6,292.6,69.6,292.7,69.6z"/>
			<path class="st2" d="M301.4,70.4h-1v-7.1h1V70.4z M301.4,61.7h-1v-1.3h1V61.7z"/>
			<rect x="303.7" y="60.4" class="st2" width="1" height="10"/>
			<path class="st2" d="M308.2,70.4h-1v-7.1h1V70.4z M308.2,61.7h-1v-1.3h1V61.7z"/>
			<g>
				<path class="st2" d="M189.7,70.8c0,1-0.3,1.7-0.8,2.2c-0.5,0.5-1.7,0.7-3.5,0.7h-0.9c-1.3,0-2.2-0.1-2.8-0.4
					c-0.6-0.3-0.9-1-0.9-2.1h1c0.1,0.5,0.2,0.9,0.5,1.1c0.2,0.2,0.5,0.3,0.9,0.4c0.4,0.1,0.7,0.1,1,0.1c0.3,0,0.6,0,1,0
					c0.6,0,1.2,0,1.6-0.1c0.5,0,0.8-0.1,1.1-0.3c0.3-0.1,0.5-0.4,0.6-0.7c0.1-0.3,0.2-0.6,0.2-1v-1.5c-0.2,0.5-0.5,0.8-0.9,1
					c-0.4,0.2-0.9,0.2-1.6,0.2l-1.8,0c-1.3,0-2.3-0.3-2.8-0.8c-0.6-0.5-0.9-1.4-0.9-2.7c0-1.3,0.2-2.2,0.6-2.8
					c0.4-0.6,1.1-0.9,2.3-0.9h2c0.8,0,1.5,0.1,2.1,0.2c0.5,0.1,0.9,0.5,1.1,1.1v-1.2h1V70.8z M184.4,69.6h0.5h0.3c0.5,0,0.9,0,1.2,0
					c0.3,0,0.6-0.1,1-0.2c0.4-0.1,0.7-0.3,0.9-0.7c0.2-0.3,0.3-0.8,0.3-1.4c0-1.2-0.1-2-0.4-2.4c-0.3-0.4-0.9-0.6-2-0.6l-2,0
					c-1,0-1.7,0.2-2,0.6c-0.3,0.4-0.5,1.1-0.5,2.2v0.2c0,0.9,0.1,1.5,0.4,1.9c0.3,0.3,0.5,0.5,0.8,0.6c0.3,0,0.6,0.1,0.9,0.1
					C184.1,69.6,184.3,69.6,184.4,69.6z"/>
			</g>
			<g>
				<path class="st2" d="M326,63.4l-3.9,7.6c-0.5,1-1,1.7-1.4,2.1c-0.4,0.4-1.1,0.6-2,0.6h-0.5v-0.8l0.3,0c0.7,0,1.2-0.2,1.5-0.5
					c0.3-0.3,0.7-1,1.2-1.9h-0.4l-3.9-7h1.2l3.5,6.2l3.2-6.2H326z"/>
			</g>
			<g>
				<path class="st2" d="M316.8,64.3h-4.8v3.4c0,0.8,0.1,1.3,0.4,1.5c0.3,0.2,0.8,0.4,1.6,0.4c0.7,0,1.2-0.1,1.6-0.3
					c0.3-0.2,0.5-0.6,0.5-1.3v-0.8h1c0,1.3-0.2,2.2-0.5,2.7c-0.3,0.4-1.1,0.7-2.5,0.7c-1.1,0-1.9-0.1-2.4-0.4
					c-0.5-0.3-0.8-0.9-0.8-1.9v-0.5v-3.4h-1.7v-0.9h1.7v-1.6h1v1.6h4.8V64.3z"/>
			</g>
			<g>
				<path class="st2" d="M270.2,64.3l-2.1-0.1c-0.4,0-0.8,0-1.1,0c-0.3,0-0.6,0-0.9,0.1c-0.3,0-0.6,0.1-0.8,0.3
					c-0.2,0.1-0.3,0.4-0.3,0.7c0,0.4,0.1,0.7,0.3,0.8c0.2,0.1,0.5,0.2,1,0.2l1.8,0h2c0.9,0,1.5,0.1,1.9,0.4c0.4,0.3,0.6,0.8,0.6,1.6
					c0,0.9-0.2,1.5-0.7,1.7c-0.5,0.2-1.2,0.4-2.3,0.4l-2,0c-0.6,0-1.1,0-1.4,0c-0.3,0-0.7-0.1-1.2-0.2c-0.5-0.1-0.8-0.3-1-0.6
					c-0.2-0.3-0.3-0.8-0.3-1.4l0-0.3h1.1l0,0.2c0,0.5,0.1,0.8,0.3,1c0.2,0.2,0.5,0.3,1,0.3l1.8,0.1h0.3h0.3c0.6,0,1.2,0,1.7-0.1
					c0.5-0.1,0.8-0.1,1-0.3c0.2-0.1,0.2-0.4,0.2-0.7c0-0.5-0.1-0.8-0.4-1c-0.2-0.2-0.6-0.3-1.2-0.3l-1.9,0h-1.8
					c-0.8,0-1.4-0.1-1.8-0.4c-0.4-0.3-0.6-0.7-0.6-1.5c0-0.7,0.2-1.2,0.6-1.5c0.4-0.3,0.9-0.5,1.7-0.5l2-0.1c0.4,0,0.7,0,1.1,0
					c0.3,0,0.7,0,1.2,0.1c0.7,0,1.2,0.2,1.5,0.5c0.3,0.3,0.5,0.8,0.5,1.5h-1c0-0.4-0.1-0.7-0.3-0.8C271,64.4,270.7,64.3,270.2,64.3z
					"/>
			</g>
			<g>
				<path class="st2" d="M259.6,64.3l-2.1-0.1c-0.4,0-0.8,0-1.1,0c-0.3,0-0.6,0-0.9,0.1c-0.3,0-0.6,0.1-0.8,0.3
					c-0.2,0.1-0.3,0.4-0.3,0.7c0,0.4,0.1,0.7,0.3,0.8c0.2,0.1,0.5,0.2,1,0.2l1.8,0h2c0.9,0,1.5,0.1,1.9,0.4c0.4,0.3,0.6,0.8,0.6,1.6
					c0,0.9-0.2,1.5-0.7,1.7c-0.5,0.2-1.2,0.4-2.3,0.4l-2,0c-0.6,0-1.1,0-1.4,0c-0.3,0-0.7-0.1-1.2-0.2c-0.5-0.1-0.8-0.3-1-0.6
					c-0.2-0.3-0.3-0.8-0.3-1.4l0-0.3h1.1l0,0.2c0,0.5,0.1,0.8,0.3,1c0.2,0.2,0.5,0.3,1,0.3l1.8,0.1h0.3h0.3c0.6,0,1.2,0,1.7-0.1
					c0.5-0.1,0.8-0.1,1-0.3c0.2-0.1,0.2-0.4,0.2-0.7c0-0.5-0.1-0.8-0.4-1c-0.2-0.2-0.6-0.3-1.2-0.3l-1.9,0h-1.8
					c-0.8,0-1.4-0.1-1.8-0.4c-0.4-0.3-0.6-0.7-0.6-1.5c0-0.7,0.2-1.2,0.6-1.5c0.4-0.3,1-0.5,1.7-0.5l2-0.1c0.4,0,0.7,0,1.1,0
					c0.3,0,0.7,0,1.2,0.1c0.7,0,1.2,0.2,1.5,0.5c0.3,0.3,0.5,0.8,0.5,1.5h-1c0-0.4-0.1-0.7-0.3-0.8
					C260.3,64.4,260.1,64.3,259.6,64.3z"/>
			</g>
			<g>
				<path class="st2" d="M232.9,64.9c0.2-0.7,0.6-1.1,1.1-1.3c0.5-0.2,1.3-0.3,2.1-0.3h0.1c0.7,0,1.3,0,1.8,0.1
					c0.5,0.1,0.9,0.3,1.3,0.5c0.4,0.3,0.6,0.6,0.7,0.9c0.1,0.3,0.1,0.8,0.1,1.3v4.2h-1v-4.1c0-0.9-0.2-1.4-0.7-1.7
					c-0.5-0.3-1.2-0.4-2.2-0.4c-1.1,0-2,0.1-2.6,0.4c-0.6,0.3-0.9,0.9-0.9,1.9v4h-1v-7h1V64.9z"/>
			</g>
			<g>
				<path class="st2" d="M229.5,70.4h-1v-7.1h1V70.4z M229.5,61.7h-1v-1.3h1V61.7z"/>
			</g>
			<g>
				<path class="st2" d="M223.9,64.3l-2.1-0.1c-0.4,0-0.8,0-1.1,0c-0.3,0-0.6,0-0.9,0.1c-0.3,0-0.6,0.1-0.8,0.3
					c-0.2,0.1-0.3,0.4-0.3,0.7c0,0.4,0.1,0.7,0.3,0.8c0.2,0.1,0.5,0.2,1,0.2l1.8,0h2c0.9,0,1.5,0.1,1.9,0.4c0.4,0.3,0.6,0.8,0.6,1.6
					c0,0.9-0.2,1.5-0.7,1.7c-0.5,0.2-1.3,0.4-2.3,0.4l-2,0c-0.6,0-1.1,0-1.4,0c-0.3,0-0.7-0.1-1.2-0.2c-0.5-0.1-0.8-0.3-1-0.6
					c-0.2-0.3-0.3-0.8-0.3-1.4l0-0.3h1.1l0,0.2c0,0.5,0.1,0.8,0.3,1c0.2,0.2,0.5,0.3,1,0.3l1.8,0.1h0.3h0.3c0.6,0,1.2,0,1.7-0.1
					c0.5-0.1,0.8-0.1,1-0.3c0.2-0.1,0.2-0.4,0.2-0.7c0-0.5-0.1-0.8-0.4-1c-0.2-0.2-0.6-0.3-1.2-0.3l-1.9,0H220
					c-0.8,0-1.4-0.1-1.8-0.4c-0.4-0.3-0.6-0.7-0.6-1.5c0-0.7,0.2-1.2,0.6-1.5c0.4-0.3,1-0.5,1.7-0.5l2-0.1c0.4,0,0.7,0,1.1,0
					c0.3,0,0.7,0,1.2,0.1c0.7,0,1.2,0.2,1.5,0.5c0.3,0.3,0.5,0.8,0.5,1.5h-1c0-0.4-0.1-0.7-0.3-0.8
					C224.6,64.4,224.3,64.3,223.9,64.3z"/>
			</g>
			<g>
				<path class="st2" d="M214.4,69.1c-0.2,0.5-0.5,0.8-1,1.1c-0.5,0.3-1.2,0.4-2.2,0.4c-1.7,0-2.8-0.2-3.3-0.7
					c-0.5-0.5-0.8-1.2-0.8-2.1v-0.2v-4.1h1v3.8c0,1,0.2,1.7,0.6,1.9c0.4,0.3,1.2,0.4,2.3,0.4c1.1,0,2-0.1,2.5-0.4
					c0.6-0.3,0.8-0.9,0.8-1.9v-3.8h1v7h-1V69.1z"/>
			</g>
			<g>
				<path class="st2" d="M171.1,64.9c0.2-0.7,0.6-1.1,1.1-1.3c0.5-0.2,1.3-0.3,2.1-0.3h0.1c0.7,0,1.3,0,1.8,0.1
					c0.5,0.1,0.9,0.3,1.3,0.5c0.4,0.3,0.6,0.6,0.7,0.9c0.1,0.3,0.1,0.8,0.1,1.3v4.2h-1v-4.1c0-0.9-0.2-1.4-0.7-1.7
					c-0.5-0.3-1.2-0.4-2.2-0.4c-1.1,0-2,0.1-2.6,0.4c-0.6,0.3-0.9,0.9-0.9,1.9v4h-1v-7h1V64.9z"/>
			</g>
			<g>
				<path class="st2" d="M131.6,64.9c0.2-0.7,0.6-1.1,1.1-1.3c0.5-0.2,1.3-0.3,2.1-0.3h0.1c0.7,0,1.4,0,1.8,0.1
					c0.5,0.1,0.9,0.3,1.3,0.5c0.4,0.3,0.6,0.6,0.7,0.9c0.1,0.3,0.1,0.8,0.1,1.3v4.2h-1v-4.1c0-0.9-0.2-1.4-0.7-1.7
					c-0.5-0.3-1.2-0.4-2.2-0.4c-1.1,0-2,0.1-2.6,0.4c-0.6,0.3-0.9,0.9-0.9,1.9v4h-1v-7h1V64.9z"/>
			</g>
		</g>
	</g>
	<g>
		<linearGradient id="SVGID_2_" gradientUnits="userSpaceOnUse" x1="195.4617" y1="-695.3964" x2="244.1922" y2="-646.6659">
			<stop  offset="0" style="stop-color:#DF1A22"/>
			<stop  offset="0.5" style="stop-color:#B11116"/>
			<stop  offset="0.5" style="stop-color:#670000"/>
			<stop  offset="0.75" style="stop-color:#CE181E"/>
			<stop  offset="1" style="stop-color:#CE181E"/>
		</linearGradient>
		<path class="st3" d="M201.8-652.7h6l5.1,5.7l5.3-5.7h19.6v-35.9h-35.9V-652.7z M247.1-688.3v34.6c0,2.7-0.9,5-2.8,6.9
			c-1.9,1.9-4.2,2.8-6.9,2.8h-35.2c-2.7,0-5-1-6.9-2.9c-1.9-1.9-2.9-4.2-2.9-6.9v-34.6c0-2.7,0.9-5,2.8-6.9c1.9-1.9,4.2-2.8,6.9-2.8
			h35.4c2.7,0,4.9,1,6.8,2.9C246.2-693.3,247.1-691,247.1-688.3z"/>
		<path class="st1" d="M250.8-644v-44.3c0-2.7,0.9-5,2.8-6.9c1.9-1.9,4.2-2.8,6.9-2.8h20.1h16.9l-8.7,9.4h-8.2h-20.5v13h30.5v9.4
			h-30.5v22.4H250.8z"/>
		<polygon class="st1" points="10.8,-698 10.8,-673 32.9,-698 45.3,-698 23.2,-672.8 45.1,-644 33.1,-644 17.1,-665.5 10.8,-658.5 
			10.8,-644 0,-644 0,-698 		"/>
		<path class="st1" d="M144.9-654.1h32.8v-12.3h-26.2c-3.2,0-5.4-0.7-6.9-2.1c-1.9-1.9-2.9-4.2-2.9-6.8v-13c0-2.7,0.9-5,2.8-6.9
			c1.9-1.9,4.2-2.8,6.9-2.8h37.2v9.4h-36v13h26.2c3.3,0,5.6,0.7,6.9,2.1c1.9,1.9,2.8,4.2,2.8,6.9v13c0,2.7-0.9,5-2.9,6.9
			c-1.9,1.9-4.2,2.9-6.9,2.9H140h-4.5L144.9-654.1z"/>
		<path class="st1" d="M109.7-654.1h2.8H137h4.5l-9.4,10.1h-19.7h-4c-2.7,0-5-1-6.9-2.9c-1.9-1.9-2.9-4.2-2.9-6.9V-698h10.9V-654.1z
			"/>
		<polygon class="st1" points="300.9,-698 301.3,-698 344.8,-698 344.8,-688.7 326,-688.7 326,-644 316.7,-644 316.7,-688.7 
			301.3,-688.7 292.3,-688.7 		"/>
		<path class="st1" d="M84.9-698c2.7,0,5,0.9,6.9,2.8c1.9,1.9,2.8,4.2,2.8,6.9v44.3h-9.4v-22.4H57.1v22.4h-9.4v-44.3
			c0-2.7,0.9-5,2.8-6.9c1.9-1.9,4.2-2.8,6.9-2.8H84.9z M85.3-675.7v-12.9H57.1v12.9H85.3z"/>
		<g>
			<path class="st2" d="M122-628.6c0.2,0,0.4,0.1,0.8,0.1c0.3,0,0.8,0,1.2,0h0.6c0.5,0,0.9,0,1.2,0c0.3,0,0.6-0.1,0.8-0.2
				c0.2-0.1,0.4-0.2,0.5-0.4c0.1-0.2,0.2-0.4,0.2-0.6h1.1c0,0.9-0.4,1.5-1.1,1.8c-0.7,0.3-1.7,0.4-2.9,0.4c-1.3,0-2.2-0.1-2.8-0.2
				c-0.6-0.1-1.1-0.4-1.5-0.9c-0.4-0.5-0.6-1.3-0.6-2.5c0-1.4,0.3-2.4,0.8-2.9c0.6-0.5,1.6-0.7,3-0.7h0.7c1.1,0,2,0.1,2.5,0.2
				c0.6,0.1,1,0.4,1.4,0.9c0.3,0.5,0.5,1.3,0.5,2.3v0.4h-7.9c0,0.7,0.1,1.2,0.3,1.6C121-629,121.3-628.7,122-628.6z M124.4-633.8
				h-0.8c-0.6,0-1.1,0-1.5,0.1c-0.4,0.1-0.8,0.2-1,0.4c-0.2,0.2-0.4,0.4-0.4,0.7c-0.1,0.2-0.1,0.5-0.1,0.8h6.8c0-0.3,0-0.6-0.1-0.8
				c-0.1-0.2-0.2-0.4-0.4-0.6c-0.2-0.2-0.5-0.3-0.8-0.4C125.6-633.8,125.1-633.8,124.4-633.8z"/>
			<path class="st2" d="M148.5-628.4c-0.2,0.3-0.4,0.5-0.6,0.6c-0.3,0.1-0.6,0.2-1,0.2l-1.9,0h-0.9c-1.2,0-2.1-0.2-2.5-0.5
				c-0.4-0.4-0.6-0.9-0.6-1.6c0-0.8,0.1-1.3,0.4-1.6c0.3-0.3,0.7-0.5,1.2-0.5c0.5,0,0.9-0.1,1.3-0.1c0.4,0,0.8,0,1.1,0l2,0.1
				c0.4,0,0.6,0.1,0.9,0.2c0.2,0.1,0.4,0.3,0.7,0.6v-0.7c0-0.4,0-0.8-0.1-1.1c-0.1-0.3-0.2-0.5-0.5-0.7c-0.2-0.2-0.6-0.3-1.2-0.3
				c-0.6,0-1,0-1.3,0c-0.3,0-0.7,0-1,0c-0.3,0-0.7,0-1,0.1c-0.4,0-0.6,0.2-0.8,0.4c-0.1,0.2-0.2,0.5-0.2,0.8h-1.1
				c0-0.7,0.2-1.3,0.5-1.6c0.3-0.3,0.8-0.5,1.5-0.5c0.7-0.1,1.3-0.1,1.8-0.1c0.7,0,1.2,0,1.7,0c0.4,0,0.9,0.1,1.4,0.2
				c0.5,0.1,0.9,0.4,1.1,0.8c0.2,0.4,0.3,1,0.3,1.6v4.4h-1V-628.4z M145-628.4h0.3c0.5,0,1,0,1.3,0c0.4,0,0.8-0.1,1.2-0.2
				c0.4-0.1,0.6-0.5,0.6-1c0-0.5-0.1-0.8-0.4-0.9c-0.3-0.1-0.6-0.2-1-0.3c-0.3,0-0.7-0.1-1.2-0.1l-0.9,0c-0.7,0-1.2,0-1.5,0
				c-0.3,0-0.6,0.1-0.8,0.2c-0.2,0.1-0.4,0.2-0.5,0.4c-0.1,0.2-0.1,0.4-0.1,0.7c0,0.4,0.1,0.6,0.3,0.8c0.2,0.2,0.7,0.3,1.3,0.3
				L145-628.4z"/>
			<path class="st2" d="M153-633.6c0.2-0.5,0.6-0.8,1-0.9c0.5-0.1,1.1-0.2,1.8-0.2h0.8c1.6,0,2.8,0.2,3.4,0.6c0.6,0.4,1,1.4,1,3
				c0,1.6-0.3,2.5-0.9,3c-0.6,0.4-1.8,0.6-3.4,0.6h-0.9c-0.7,0-1.3-0.1-1.7-0.2c-0.4-0.1-0.8-0.5-1.1-1v1.1h-1v-10h1V-633.6z
				 M156.7-628.4h0.3c0.5,0,0.9,0,1.3,0c0.3,0,0.6-0.1,0.9-0.2c0.3-0.1,0.5-0.4,0.6-0.7c0.1-0.3,0.2-0.8,0.2-1.3v-0.3
				c0-0.8-0.1-1.5-0.2-1.9c-0.2-0.4-0.5-0.7-0.9-0.7c-0.4-0.1-0.8-0.1-1.2-0.1c-0.3,0-0.7,0-0.9,0c-0.5,0-0.8,0-1.1,0
				c-0.3,0-0.7,0.1-1.2,0.1c-0.5,0.1-0.9,0.3-1,0.7c-0.2,0.4-0.3,1.1-0.3,1.9c0,0.6,0.1,1.1,0.2,1.5c0.1,0.4,0.3,0.7,0.7,0.8
				c0.3,0.2,0.7,0.2,1.2,0.3C155.5-628.4,156.1-628.4,156.7-628.4z"/>
			<rect x="163.2" y="-637.6" class="st2" width="1" height="10"/>
			<path class="st2" d="M167.6-627.6h-1v-7.1h1V-627.6z M167.6-636.3h-1v-1.3h1V-636.3z"/>
			<path class="st2" d="M196.8-633.6c0.2-0.5,0.6-0.8,1-0.9c0.5-0.1,1.1-0.2,1.8-0.2h0.8c1.6,0,2.8,0.2,3.4,0.6c0.6,0.4,1,1.4,1,3
				c0,1.6-0.3,2.5-0.9,3c-0.6,0.4-1.8,0.6-3.4,0.6h-0.9c-0.7,0-1.3-0.1-1.7-0.2c-0.4-0.1-0.8-0.5-1.1-1v1.1h-1v-10h1V-633.6z
				 M200.5-628.4h0.3c0.5,0,0.9,0,1.3,0c0.3,0,0.6-0.1,0.9-0.2c0.3-0.1,0.5-0.4,0.6-0.7c0.1-0.3,0.2-0.8,0.2-1.3v-0.3
				c0-0.8-0.1-1.5-0.2-1.9c-0.2-0.4-0.5-0.7-0.9-0.7c-0.4-0.1-0.8-0.1-1.2-0.1c-0.3,0-0.7,0-0.9,0c-0.5,0-0.8,0-1.1,0
				c-0.3,0-0.7,0.1-1.2,0.1c-0.5,0.1-0.9,0.3-1,0.7c-0.2,0.4-0.3,1.1-0.3,1.9c0,0.6,0.1,1.1,0.2,1.5c0.1,0.4,0.3,0.7,0.7,0.8
				c0.3,0.2,0.7,0.2,1.2,0.3C199.3-628.4,199.9-628.4,200.5-628.4z"/>
			<path class="st2" d="M244.9-628.6c0.2,0,0.4,0.1,0.8,0.1c0.3,0,0.8,0,1.2,0h0.6c0.5,0,0.9,0,1.2,0c0.3,0,0.6-0.1,0.8-0.2
				c0.2-0.1,0.4-0.2,0.5-0.4c0.1-0.2,0.2-0.4,0.2-0.6h1.1c0,0.9-0.4,1.5-1.1,1.8c-0.7,0.3-1.7,0.4-2.9,0.4c-1.3,0-2.2-0.1-2.8-0.2
				c-0.6-0.1-1.1-0.4-1.5-0.9c-0.4-0.5-0.6-1.3-0.6-2.5c0-1.4,0.3-2.4,0.8-2.9c0.6-0.5,1.5-0.7,3-0.7h0.7c1.1,0,2,0.1,2.5,0.2
				c0.6,0.1,1,0.4,1.4,0.9c0.3,0.5,0.5,1.3,0.5,2.3v0.4h-7.9c0,0.7,0.1,1.2,0.3,1.6C243.9-629,244.3-628.7,244.9-628.6z
				 M247.3-633.8h-0.8c-0.6,0-1.1,0-1.5,0.1c-0.4,0.1-0.8,0.2-1,0.4c-0.2,0.2-0.4,0.4-0.4,0.7c-0.1,0.2-0.1,0.5-0.1,0.8h6.8
				c0-0.3,0-0.6-0.1-0.8c-0.1-0.2-0.2-0.4-0.4-0.6c-0.2-0.2-0.5-0.3-0.8-0.4C248.5-633.8,248-633.8,247.3-633.8z"/>
			<path class="st2" d="M285.7-628.4c-0.2,0.3-0.4,0.5-0.6,0.6c-0.3,0.1-0.6,0.2-1,0.2l-1.9,0h-0.9c-1.2,0-2.1-0.2-2.5-0.5
				c-0.4-0.4-0.6-0.9-0.6-1.6c0-0.8,0.1-1.3,0.4-1.6c0.3-0.3,0.7-0.5,1.2-0.5c0.5,0,0.9-0.1,1.3-0.1c0.4,0,0.8,0,1.1,0l2,0.1
				c0.4,0,0.6,0.1,0.9,0.2c0.2,0.1,0.4,0.3,0.7,0.6v-0.7c0-0.4,0-0.8-0.1-1.1c-0.1-0.3-0.2-0.5-0.5-0.7c-0.2-0.2-0.6-0.3-1.2-0.3
				c-0.6,0-1,0-1.3,0c-0.3,0-0.7,0-1,0c-0.3,0-0.7,0-1,0.1c-0.4,0-0.6,0.2-0.8,0.4c-0.1,0.2-0.2,0.5-0.2,0.8h-1.1
				c0-0.7,0.2-1.3,0.5-1.6c0.3-0.3,0.8-0.5,1.5-0.5c0.7-0.1,1.3-0.1,1.8-0.1c0.7,0,1.2,0,1.7,0c0.4,0,0.9,0.1,1.4,0.2
				c0.5,0.1,0.9,0.4,1.1,0.8c0.2,0.4,0.3,1,0.3,1.6v4.4h-1V-628.4z M282.2-628.4h0.3c0.5,0,1,0,1.3,0c0.4,0,0.8-0.1,1.2-0.2
				c0.4-0.1,0.6-0.5,0.6-1c0-0.5-0.1-0.8-0.4-0.9c-0.3-0.1-0.6-0.2-1-0.3c-0.3,0-0.7-0.1-1.2-0.1l-0.9,0c-0.7,0-1.2,0-1.5,0
				c-0.3,0-0.6,0.1-0.8,0.2c-0.2,0.1-0.4,0.2-0.5,0.4c-0.1,0.2-0.1,0.4-0.1,0.7c0,0.4,0.1,0.6,0.3,0.8c0.2,0.2,0.7,0.3,1.3,0.3
				L282.2-628.4z"/>
			<path class="st2" d="M298-627.3c0,1-0.3,1.7-0.8,2.2c-0.5,0.5-1.7,0.7-3.5,0.7h-0.9c-1.3,0-2.2-0.1-2.8-0.4
				c-0.6-0.3-0.9-1-0.9-2.1h1c0.1,0.5,0.2,0.9,0.5,1.1c0.2,0.2,0.5,0.3,0.9,0.4c0.4,0.1,0.7,0.1,1,0.1c0.3,0,0.6,0,1,0
				c0.6,0,1.2,0,1.6-0.1c0.5,0,0.8-0.1,1.1-0.3c0.3-0.1,0.5-0.4,0.6-0.7c0.1-0.3,0.2-0.6,0.2-1v-1.5c-0.2,0.5-0.5,0.8-0.9,1
				c-0.4,0.2-0.9,0.2-1.6,0.2l-1.8,0c-1.3,0-2.3-0.3-2.8-0.8c-0.6-0.5-0.9-1.4-0.9-2.7c0-1.3,0.2-2.2,0.6-2.8
				c0.4-0.6,1.1-0.9,2.3-0.9h2c0.8,0,1.5,0.1,2.1,0.2c0.5,0.1,0.9,0.5,1.1,1.1v-1.2h1V-627.3z M292.7-628.4h0.5h0.3
				c0.5,0,0.9,0,1.2,0c0.3,0,0.6-0.1,1-0.2c0.4-0.1,0.7-0.3,0.9-0.7c0.2-0.3,0.3-0.8,0.3-1.4c0-1.2-0.1-2-0.4-2.4
				c-0.3-0.4-0.9-0.6-2-0.6l-2,0c-1,0-1.7,0.2-2,0.6c-0.3,0.4-0.5,1.1-0.5,2.2v0.2c0,0.9,0.1,1.5,0.4,1.9c0.3,0.3,0.5,0.5,0.8,0.6
				c0.3,0,0.6,0.1,0.9,0.1C292.4-628.4,292.6-628.4,292.7-628.4z"/>
			<path class="st2" d="M301.4-627.6h-1v-7.1h1V-627.6z M301.4-636.3h-1v-1.3h1V-636.3z"/>
			<rect x="303.7" y="-637.6" class="st2" width="1" height="10"/>
			<path class="st2" d="M308.2-627.6h-1v-7.1h1V-627.6z M308.2-636.3h-1v-1.3h1V-636.3z"/>
			<g>
				<path class="st2" d="M189.7-627.3c0,1-0.3,1.7-0.8,2.2c-0.5,0.5-1.7,0.7-3.5,0.7h-0.9c-1.3,0-2.2-0.1-2.8-0.4
					c-0.6-0.3-0.9-1-0.9-2.1h1c0.1,0.5,0.2,0.9,0.5,1.1c0.2,0.2,0.5,0.3,0.9,0.4c0.4,0.1,0.7,0.1,1,0.1c0.3,0,0.6,0,1,0
					c0.6,0,1.2,0,1.6-0.1c0.5,0,0.8-0.1,1.1-0.3c0.3-0.1,0.5-0.4,0.6-0.7c0.1-0.3,0.2-0.6,0.2-1v-1.5c-0.2,0.5-0.5,0.8-0.9,1
					c-0.4,0.2-0.9,0.2-1.6,0.2l-1.8,0c-1.3,0-2.3-0.3-2.8-0.8c-0.6-0.5-0.9-1.4-0.9-2.7c0-1.3,0.2-2.2,0.6-2.8
					c0.4-0.6,1.1-0.9,2.3-0.9h2c0.8,0,1.5,0.1,2.1,0.2c0.5,0.1,0.9,0.5,1.1,1.1v-1.2h1V-627.3z M184.4-628.4h0.5h0.3
					c0.5,0,0.9,0,1.2,0c0.3,0,0.6-0.1,1-0.2c0.4-0.1,0.7-0.3,0.9-0.7c0.2-0.3,0.3-0.8,0.3-1.4c0-1.2-0.1-2-0.4-2.4
					c-0.3-0.4-0.9-0.6-2-0.6l-2,0c-1,0-1.7,0.2-2,0.6c-0.3,0.4-0.5,1.1-0.5,2.2v0.2c0,0.9,0.1,1.5,0.4,1.9c0.3,0.3,0.5,0.5,0.8,0.6
					c0.3,0,0.6,0.1,0.9,0.1C184.1-628.4,184.3-628.4,184.4-628.4z"/>
			</g>
			<g>
				<path class="st2" d="M326-634.6l-3.9,7.6c-0.5,1-1,1.7-1.4,2.1c-0.4,0.4-1.1,0.6-2,0.6h-0.5v-0.8l0.3,0c0.7,0,1.2-0.2,1.5-0.5
					c0.3-0.3,0.7-1,1.2-1.9h-0.4l-3.9-7h1.2l3.5,6.2l3.2-6.2H326z"/>
			</g>
			<g>
				<path class="st2" d="M316.8-633.7h-4.8v3.4c0,0.8,0.1,1.3,0.4,1.5c0.3,0.2,0.8,0.4,1.6,0.4c0.7,0,1.2-0.1,1.6-0.3
					c0.3-0.2,0.5-0.6,0.5-1.3v-0.8h1c0,1.3-0.2,2.2-0.5,2.7c-0.3,0.4-1.1,0.7-2.5,0.7c-1.1,0-1.9-0.1-2.4-0.4
					c-0.5-0.3-0.8-0.9-0.8-1.9v-0.5v-3.4h-1.7v-0.9h1.7v-1.6h1v1.6h4.8V-633.7z"/>
			</g>
			<g>
				<path class="st2" d="M270.2-633.7l-2.1-0.1c-0.4,0-0.8,0-1.1,0c-0.3,0-0.6,0-0.9,0.1c-0.3,0-0.6,0.1-0.8,0.3
					c-0.2,0.1-0.3,0.4-0.3,0.7c0,0.4,0.1,0.7,0.3,0.8c0.2,0.1,0.5,0.2,1,0.2l1.8,0h2c0.9,0,1.5,0.1,1.9,0.4c0.4,0.3,0.6,0.8,0.6,1.6
					c0,0.9-0.2,1.5-0.7,1.7c-0.5,0.2-1.2,0.4-2.3,0.4l-2,0c-0.6,0-1.1,0-1.4,0c-0.3,0-0.7-0.1-1.2-0.2c-0.5-0.1-0.8-0.3-1-0.6
					c-0.2-0.3-0.3-0.8-0.3-1.4l0-0.3h1.1l0,0.2c0,0.5,0.1,0.8,0.3,1c0.2,0.2,0.5,0.3,1,0.3l1.8,0.1h0.3h0.3c0.6,0,1.2,0,1.7-0.1
					c0.5-0.1,0.8-0.1,1-0.3c0.2-0.1,0.2-0.4,0.2-0.7c0-0.5-0.1-0.8-0.4-1c-0.2-0.2-0.6-0.3-1.2-0.3l-1.9,0h-1.8
					c-0.8,0-1.4-0.1-1.8-0.4c-0.4-0.3-0.6-0.7-0.6-1.5c0-0.7,0.2-1.2,0.6-1.5c0.4-0.3,0.9-0.5,1.7-0.5l2-0.1c0.4,0,0.7,0,1.1,0
					c0.3,0,0.7,0,1.2,0.1c0.7,0,1.2,0.2,1.5,0.5c0.3,0.3,0.5,0.8,0.5,1.5h-1c0-0.4-0.1-0.7-0.3-0.8
					C271-633.6,270.7-633.7,270.2-633.7z"/>
			</g>
			<g>
				<path class="st2" d="M259.6-633.7l-2.1-0.1c-0.4,0-0.8,0-1.1,0c-0.3,0-0.6,0-0.9,0.1c-0.3,0-0.6,0.1-0.8,0.3
					c-0.2,0.1-0.3,0.4-0.3,0.7c0,0.4,0.1,0.7,0.3,0.8c0.2,0.1,0.5,0.2,1,0.2l1.8,0h2c0.9,0,1.5,0.1,1.9,0.4c0.4,0.3,0.6,0.8,0.6,1.6
					c0,0.9-0.2,1.5-0.7,1.7c-0.5,0.2-1.2,0.4-2.3,0.4l-2,0c-0.6,0-1.1,0-1.4,0c-0.3,0-0.7-0.1-1.2-0.2c-0.5-0.1-0.8-0.3-1-0.6
					c-0.2-0.3-0.3-0.8-0.3-1.4l0-0.3h1.1l0,0.2c0,0.5,0.1,0.8,0.3,1c0.2,0.2,0.5,0.3,1,0.3l1.8,0.1h0.3h0.3c0.6,0,1.2,0,1.7-0.1
					s0.8-0.1,1-0.3c0.2-0.1,0.2-0.4,0.2-0.7c0-0.5-0.1-0.8-0.4-1c-0.2-0.2-0.6-0.3-1.2-0.3l-1.9,0h-1.8c-0.8,0-1.4-0.1-1.8-0.4
					c-0.4-0.3-0.6-0.7-0.6-1.5c0-0.7,0.2-1.2,0.6-1.5c0.4-0.3,1-0.5,1.7-0.5l2-0.1c0.4,0,0.7,0,1.1,0c0.3,0,0.7,0,1.2,0.1
					c0.7,0,1.2,0.2,1.5,0.5c0.3,0.3,0.5,0.8,0.5,1.5h-1c0-0.4-0.1-0.7-0.3-0.8C260.3-633.6,260.1-633.7,259.6-633.7z"/>
			</g>
			<g>
				<path class="st2" d="M232.9-633.2c0.2-0.7,0.6-1.1,1.1-1.3c0.5-0.2,1.3-0.3,2.1-0.3h0.1c0.7,0,1.3,0,1.8,0.1s0.9,0.3,1.3,0.5
					c0.4,0.3,0.6,0.6,0.7,0.9c0.1,0.3,0.1,0.8,0.1,1.3v4.2h-1v-4.1c0-0.9-0.2-1.4-0.7-1.7c-0.5-0.3-1.2-0.4-2.2-0.4
					c-1.1,0-2,0.1-2.6,0.4c-0.6,0.3-0.9,0.9-0.9,1.9v4h-1v-7h1V-633.2z"/>
			</g>
			<g>
				<path class="st2" d="M229.5-627.6h-1v-7.1h1V-627.6z M229.5-636.3h-1v-1.3h1V-636.3z"/>
			</g>
			<g>
				<path class="st2" d="M223.9-633.7l-2.1-0.1c-0.4,0-0.8,0-1.1,0c-0.3,0-0.6,0-0.9,0.1c-0.3,0-0.6,0.1-0.8,0.3
					c-0.2,0.1-0.3,0.4-0.3,0.7c0,0.4,0.1,0.7,0.3,0.8c0.2,0.1,0.5,0.2,1,0.2l1.8,0h2c0.9,0,1.5,0.1,1.9,0.4c0.4,0.3,0.6,0.8,0.6,1.6
					c0,0.9-0.2,1.5-0.7,1.7c-0.5,0.2-1.3,0.4-2.3,0.4l-2,0c-0.6,0-1.1,0-1.4,0c-0.3,0-0.7-0.1-1.2-0.2c-0.5-0.1-0.8-0.3-1-0.6
					c-0.2-0.3-0.3-0.8-0.3-1.4l0-0.3h1.1l0,0.2c0,0.5,0.1,0.8,0.3,1c0.2,0.2,0.5,0.3,1,0.3l1.8,0.1h0.3h0.3c0.6,0,1.2,0,1.7-0.1
					c0.5-0.1,0.8-0.1,1-0.3c0.2-0.1,0.2-0.4,0.2-0.7c0-0.5-0.1-0.8-0.4-1c-0.2-0.2-0.6-0.3-1.2-0.3l-1.9,0H220
					c-0.8,0-1.4-0.1-1.8-0.4c-0.4-0.3-0.6-0.7-0.6-1.5c0-0.7,0.2-1.2,0.6-1.5c0.4-0.3,1-0.5,1.7-0.5l2-0.1c0.4,0,0.7,0,1.1,0
					c0.3,0,0.7,0,1.2,0.1c0.7,0,1.2,0.2,1.5,0.5c0.3,0.3,0.5,0.8,0.5,1.5h-1c0-0.4-0.1-0.7-0.3-0.8
					C224.6-633.6,224.3-633.7,223.9-633.7z"/>
			</g>
			<g>
				<path class="st2" d="M214.4-629c-0.2,0.5-0.5,0.8-1,1.1c-0.5,0.3-1.2,0.4-2.2,0.4c-1.7,0-2.8-0.2-3.3-0.7
					c-0.5-0.5-0.8-1.2-0.8-2.1v-0.2v-4.1h1v3.8c0,1,0.2,1.7,0.6,1.9c0.4,0.3,1.2,0.4,2.3,0.4c1.1,0,2-0.1,2.5-0.4
					c0.6-0.3,0.8-0.9,0.8-1.9v-3.8h1v7h-1V-629z"/>
			</g>
			<g>
				<path class="st2" d="M171.1-633.2c0.2-0.7,0.6-1.1,1.1-1.3c0.5-0.2,1.3-0.3,2.1-0.3h0.1c0.7,0,1.3,0,1.8,0.1s0.9,0.3,1.3,0.5
					c0.4,0.3,0.6,0.6,0.7,0.9c0.1,0.3,0.1,0.8,0.1,1.3v4.2h-1v-4.1c0-0.9-0.2-1.4-0.7-1.7c-0.5-0.3-1.2-0.4-2.2-0.4
					c-1.1,0-2,0.1-2.6,0.4c-0.6,0.3-0.9,0.9-0.9,1.9v4h-1v-7h1V-633.2z"/>
			</g>
			<g>
				<path class="st2" d="M131.6-633.2c0.2-0.7,0.6-1.1,1.1-1.3c0.5-0.2,1.3-0.3,2.1-0.3h0.1c0.7,0,1.4,0,1.8,0.1
					c0.5,0.1,0.9,0.3,1.3,0.5c0.4,0.3,0.6,0.6,0.7,0.9c0.1,0.3,0.1,0.8,0.1,1.3v4.2h-1v-4.1c0-0.9-0.2-1.4-0.7-1.7
					c-0.5-0.3-1.2-0.4-2.2-0.4c-1.1,0-2,0.1-2.6,0.4c-0.6,0.3-0.9,0.9-0.9,1.9v4h-1v-7h1V-633.2z"/>
			</g>
		</g>
	</g>
</g>
</svg>
